<?xml version="1.0" encoding="UTF-8" standalone="no"?>
<svg
   xmlns:dc="http://purl.org/dc/elements/1.1/"
   xmlns:cc="http://creativecommons.org/ns#"
   xmlns:rdf="http://www.w3.org/1999/02/22-rdf-syntax-ns#"
   xmlns:svg="http://www.w3.org/2000/svg"
   xmlns="http://www.w3.org/2000/svg"
   xmlns:sodipodi="http://sodipodi.sourceforge.net/DTD/sodipodi-0.dtd"
   xmlns:inkscape="http://www.inkscape.org/namespaces/inkscape"
   width="1921"
   height="905.499"
   viewBox="0 0 1921 905.499"
   version="1.1"
   id="svg12"
   sodipodi:docname="Subtraction 6.svg"
   inkscape:version="0.92.4 (5da689c313, 2019-01-14)">
  <metadata
     id="metadata16">
    <rdf:RDF>
      <cc:Work
         rdf:about="">
        <dc:format>image/svg+xml</dc:format>
        <dc:type
           rdf:resource="http://purl.org/dc/dcmitype/StillImage" />
        <dc:title></dc:title>
      </cc:Work>
    </rdf:RDF>
  </metadata>
  <sodipodi:namedview
     pagecolor="#ffffff"
     bordercolor="#666666"
     borderopacity="1"
     objecttolerance="10"
     gridtolerance="10"
     guidetolerance="10"
     inkscape:pageopacity="0"
     inkscape:pageshadow="2"
     inkscape:window-width="1920"
     inkscape:window-height="1017"
     id="namedview14"
     showgrid="false"
     inkscape:zoom="0.42257084"
     inkscape:cx="1223.749"
     inkscape:cy="573.01366"
     inkscape:window-x="-8"
     inkscape:window-y="-8"
     inkscape:window-maximized="1"
     inkscape:current-layer="svg12" />
  <defs
     id="defs9">
    <linearGradient
       id="linear-gradient"
       x1="78.023705"
       y1="1285.347"
       x2="1274.597"
       y2="215.27042"
       gradientUnits="userSpaceOnUse"
       gradientTransform="matrix(1.4529418,0,0,0.58787717,-68.829998,130.15569)">
      <stop
         offset="0"
         stop-color="#ffaaca"
         id="stop2" />
      <stop
         offset="0.498"
         stop-color="#ffc2ff"
         id="stop4" />
      <stop
         offset="1"
         stop-color="#aae4ff"
         id="stop6" />
    </linearGradient>
  </defs>
  <path
     id="Subtraction_6"
     data-name="Subtraction 6"
     d="M 0.99753621,905.5 H 0 V 691.12993 c 3.5452437,-2.01307 7.0954751,-4.06552 10.552936,-6.10086 15.16255,-8.92396 30.436825,-18.59285 45.406851,-28.73868 15.505702,-10.51146 31.134102,-21.8398 46.451273,-33.67247 15.8299,-12.21885 31.8214,-25.35302 47.51764,-39.03779 16.16008,-14.08122 32.51968,-29.17111 48.60395,-44.85096 16.5591,-16.13708 33.27881,-33.33082 49.70922,-51.10422 16.90126,-18.28203 34.00402,-37.72772 50.83345,-57.79761 a 619.56974,531.82369 0 0 1 40.05906,-42.85929 c 13.89269,-13.38935 28.87768,-26.45247 44.538,-38.82715 15.28824,-12.08185 31.65581,-23.84687 48.64585,-34.96799 16.59601,-10.85825 34.21549,-21.38169 52.37664,-31.27921 17.74317,-9.67576 36.49187,-19.01499 55.72436,-27.76941 18.71678,-8.52321 38.46799,-16.74589 58.70401,-24.4394 19.6375,-7.46402 40.26056,-14.6215 61.29561,-21.27464 20.46845,-6.4725 41.84066,-12.62729 63.52311,-18.29318 21.07494,-5.51003 43.06763,-10.72038 65.36755,-15.48547 21.68843,-4.63238 44.17489,-8.9565 66.83492,-12.85076 22.06052,-3.79068 44.91407,-7.28764 67.92623,-10.39245 22.32487,-3.01404 45.41883,-5.74294 68.64047,-8.1105 44.14597,-4.50565 90.54737,-7.89558 137.91437,-10.07476 43.9265,-2.01993 89.7673,-3.04744 136.2525,-3.04744 36.7642,0 74.7703,0.6439 112.964,1.91461 35.1182,1.16537 71.3388,2.89672 107.6541,5.14613 63.0912,3.91567 127.6297,9.46681 191.8262,16.49928 50.0584,5.48008 99.8374,11.84209 147.9546,18.91309 40.1219,5.89537 70.5397,11.03207 88.9912,14.29956 V 905.11554 H 0.99753621 v 0.38274 z"
     style="fill:url(#linear-gradient);stroke-width:0.9242031"
     inkscape:connector-curvature="0" />
</svg>
